# xmcd generated by iCDc
#
# Track frame offsets:
#     183
#     25933
#     39158
#     48433
#     61270
#     81733
#     97633
#     120208
#     129333
#     135658
#     154783
#     173633
#     187908
#     202908
#     228508
#     250783
#     264420
#     283808
#
# Disc length: 4727 seconds
#
# Revision: 0
# Processed by: cddbd v1.4PL0 Copyright (c) Steve Scherf et al.
# Submitted via: iCDc 2.0 http://homepage.mac.com/andersw/icdc/
#
DISCID=e3127512
DTITLE=Eric Clapton - Further On Up The Crossroads - Disc 1
DYEAR=1995
DGENRE=Blues
TTITLE0=I Got My Mojo Working
TTITLE1=Louise
TTITLE2=Key To Love
TTITLE3=Lawdy Mama
TTITLE4=Meet Me (In The Bootom)
TTITLE5=Crossroads
TTITLE6=Steppin' Out
TTITLE7=Lawdy Mama
TTITLE8=Falstaff Beer Commercial
TTITLE9=White Room
TTITLE10=Sunshine Of Your Love
TTITLE11=Take It Back
TTITLE12=Change Of Adress
TTITLE13=Can't Find My Way Home
TTITLE14=Cold Turkey
TTITLE15=Poor Elijah
TTITLE16=Where There's A Will There's A Way
TTITLE17=Key Of E Jam
EXTD=
EXTT0=
EXTT1=
EXTT2=
EXTT3=
EXTT4=
EXTT5=
EXTT6=
EXTT7=
EXTT8=
EXTT9=
EXTT10=
EXTT11=
EXTT12=
EXTT13=
EXTT14=
EXTT15=
EXTT16=
EXTT17=
PLAYORDER=
